<svg id='wave' preserveAspectRatio='none' viewBox="0 0 512 100" xmlns="http://www.w3.org/2000/svg" height="100" width="512">
    <polygon points="0.0,50.0 0.0,47.5 0.5,47.50 1.5,47.38 2.5,47.24 3.5,47.24 4.5,47.23 5.5,47.19 6.5,47.22 7.5,47.24 8.5,47.14 9.5,46.98 10.5,46.91 11.5,46.90 12.5,46.94 13.5,46.88 14.5,44.23 15.5,38.41 16.5,33.31 17.5,27.69 18.5,25.24 19.5,33.18 20.5,42.56 21.5,40.99 22.5,28.47 23.5,23.86 24.5,35.96 25.5,45.52 26.5,45.88 27.5,44.64 28.5,44.81 29.5,45.69 30.5,46.00 31.5,46.31 32.5,46.55 33.5,46.72 34.5,46.85 35.5,46.84 36.5,46.85 37.5,46.93 38.5,46.98 39.5,47.04 40.5,47.10 41.5,47.09 42.5,47.05 43.5,47.06 44.5,47.07 45.5,47.08 46.5,47.12 47.5,47.07 48.5,47.01 49.5,47.10 50.5,47.15 51.5,47.17 52.5,47.20 53.5,47.21 54.5,47.18 55.5,47.11 56.5,47.03 57.5,42.91 58.5,32.88 59.5,25.20 60.5,24.59 61.5,28.17 62.5,29.73 63.5,27.96 64.5,30.69 65.5,36.34 66.5,38.87 67.5,39.63 68.5,37.30 69.5,34.64 70.5,36.81 71.5,39.88 72.5,41.97 73.5,42.94 74.5,35.57 75.5,27.35 76.5,33.84 77.5,43.34 78.5,45.51 79.5,43.71 80.5,37.71 81.5,31.60 82.5,25.93 83.5,19.89 84.5,21.57 85.5,27.39 86.5,27.58 87.5,28.22 88.5,34.23 89.5,41.86 90.5,46.16 91.5,43.87 92.5,35.46 93.5,27.95 94.5,27.51 95.5,29.19 96.5,32.66 97.5,40.83 98.5,46.03 99.5,40.83 100.5,30.46 101.5,30.28 102.5,39.58 103.5,45.57 104.5,46.65 105.5,45.75 106.5,44.49 107.5,44.07 108.5,40.99 109.5,37.13 110.5,40.38 111.5,45.47 112.5,46.81 113.5,44.11 114.5,37.02 115.5,31.66 116.5,32.03 117.5,36.61 118.5,41.92 119.5,44.05 120.5,42.93 121.5,41.96 122.5,43.42 123.5,45.74 124.5,44.11 125.5,38.77 126.5,38.31 127.5,43.52 128.5,45.91 129.5,44.25 130.5,43.01 131.5,43.74 132.5,45.14 133.5,46.15 134.5,46.70 135.5,46.90 136.5,46.99 137.5,47.04 138.5,47.07 139.5,47.01 140.5,46.96 141.5,47.10 142.5,47.18 143.5,47.16 144.5,47.15 145.5,47.14 146.5,47.05 147.5,47.00 148.5,47.09 149.5,47.10 150.5,47.03 151.5,47.01 152.5,46.97 153.5,46.96 154.5,46.95 155.5,46.89 156.5,46.86 157.5,46.89 158.5,46.88 159.5,46.78 160.5,46.81 161.5,46.98 162.5,47.11 163.5,47.22 164.5,47.22 165.5,45.41 166.5,34.20 167.5,16.06 168.5,5.35 169.5,8.22 170.5,23.64 171.5,39.50 172.5,45.53 173.5,42.41 174.5,34.27 175.5,31.17 176.5,35.57 177.5,41.28 178.5,45.01 179.5,46.56 180.5,46.35 181.5,42.22 182.5,36.22 183.5,31.59 184.5,27.52 185.5,26.07 186.5,27.33 187.5,33.02 188.5,41.80 189.5,43.95 190.5,41.28 191.5,42.46 192.5,44.58 193.5,41.12 194.5,35.65 195.5,34.48 196.5,32.70 197.5,26.94 198.5,22.94 199.5,26.06 200.5,35.80 201.5,43.46 202.5,43.81 203.5,40.49 204.5,38.35 205.5,36.66 206.5,32.75 207.5,29.80 208.5,30.98 209.5,35.91 210.5,41.94 211.5,41.03 212.5,32.80 213.5,29.61 214.5,35.66 215.5,42.79 216.5,43.91 217.5,41.00 218.5,39.58 219.5,40.91 220.5,43.80 221.5,46.05 222.5,45.47 223.5,38.91 224.5,27.81 225.5,22.09 226.5,25.90 227.5,31.93 228.5,32.13 229.5,28.66 230.5,30.86 231.5,36.81 232.5,36.29 233.5,31.88 234.5,30.07 235.5,30.95 236.5,34.80 237.5,40.94 238.5,45.48 239.5,44.08 240.5,36.73 241.5,31.04 242.5,31.39 243.5,33.69 244.5,36.09 245.5,38.91 246.5,41.42 247.5,43.78 248.5,45.91 249.5,46.88 250.5,44.21 251.5,38.21 252.5,33.81 253.5,34.41 254.5,39.38 255.5,43.93 256.5,43.97 257.5,40.92 258.5,38.06 259.5,36.66 260.5,35.80 261.5,33.98 262.5,32.67 263.5,33.58 264.5,37.58 265.5,43.46 266.5,45.61 267.5,44.09 268.5,42.91 269.5,42.38 270.5,41.78 271.5,38.21 272.5,31.93 273.5,28.52 274.5,28.73 275.5,33.22 276.5,40.97 277.5,44.28 278.5,41.61 279.5,40.66 280.5,43.14 281.5,41.77 282.5,37.14 283.5,34.39 284.5,33.45 285.5,33.75 286.5,36.95 287.5,42.44 288.5,45.93 289.5,46.81 290.5,47.03 291.5,47.06 292.5,47.02 293.5,46.96 294.5,46.97 295.5,46.92 296.5,46.83 297.5,46.82 298.5,46.76 299.5,46.68 300.5,46.68 301.5,46.77 302.5,46.82 303.5,46.81 304.5,46.86 305.5,46.87 306.5,46.89 307.5,46.91 308.5,46.92 309.5,46.96 310.5,46.97 311.5,46.97 312.5,46.98 313.5,46.98 314.5,46.99 315.5,47.00 316.5,47.09 317.5,47.24 318.5,47.28 319.5,47.26 320.5,47.27 321.5,47.26 322.5,47.18 323.5,45.89 324.5,42.65 325.5,39.99 326.5,39.39 327.5,40.17 328.5,40.39 329.5,37.56 330.5,33.30 331.5,30.74 332.5,33.01 333.5,39.23 334.5,40.71 335.5,34.89 336.5,29.66 337.5,29.09 338.5,30.50 339.5,32.68 340.5,33.29 341.5,31.47 342.5,31.34 343.5,33.23 344.5,36.07 345.5,40.29 346.5,42.20 347.5,39.87 348.5,37.45 349.5,34.12 350.5,27.32 351.5,21.14 352.5,22.55 353.5,29.69 354.5,33.32 355.5,32.84 356.5,32.93 357.5,36.90 358.5,42.58 359.5,39.45 360.5,30.29 361.5,32.09 362.5,41.86 363.5,46.40 364.5,46.83 365.5,46.06 366.5,40.40 367.5,31.28 368.5,26.69 369.5,27.69 370.5,33.49 371.5,42.01 372.5,41.84 373.5,35.18 374.5,35.87 375.5,41.54 376.5,45.18 377.5,45.86 378.5,44.55 379.5,43.58 380.5,41.17 381.5,37.29 382.5,38.48 383.5,43.80 384.5,45.47 385.5,41.64 386.5,37.24 387.5,36.79 388.5,38.13 389.5,39.98 390.5,42.69 391.5,43.14 392.5,40.76 393.5,40.80 394.5,44.60 395.5,46.96 396.5,46.45 397.5,45.62 398.5,45.97 399.5,46.55 400.5,46.74 401.5,47.01 402.5,47.16 403.5,47.20 404.5,47.21 405.5,47.15 406.5,47.16 407.5,47.17 408.5,47.05 409.5,47.01 410.5,47.06 411.5,46.99 412.5,46.92 413.5,46.97 414.5,47.01 415.5,46.93 416.5,45.16 417.5,41.59 418.5,39.11 419.5,38.65 420.5,39.17 421.5,38.70 422.5,34.00 423.5,23.56 424.5,20.99 425.5,33.84 426.5,42.80 427.5,39.07 428.5,31.84 429.5,28.41 430.5,31.13 431.5,35.71 432.5,37.04 433.5,38.65 434.5,40.49 435.5,36.11 436.5,33.47 437.5,38.95 438.5,44.30 439.5,46.14 440.5,45.24 441.5,40.14 442.5,36.43 443.5,38.25 444.5,39.20 445.5,37.20 446.5,36.46 447.5,37.38 448.5,38.19 449.5,40.79 450.5,44.64 451.5,44.99 452.5,42.08 453.5,40.16 454.5,41.24 455.5,43.91 456.5,46.03 457.5,46.94 458.5,47.15 459.5,47.15 460.5,47.10 461.5,47.07 462.5,47.10 463.5,47.17 464.5,47.17 465.5,47.12 466.5,47.09 467.5,47.09 468.5,47.11 469.5,47.13 470.5,47.15 471.5,47.10 472.5,47.06 473.5,45.69 474.5,41.75 475.5,37.57 476.5,35.76 477.5,36.57 478.5,39.31 479.5,42.83 480.5,44.01 481.5,37.81 482.5,27.34 483.5,25.86 484.5,35.15 485.5,43.48 486.5,46.12 487.5,45.54 488.5,44.03 489.5,42.81 490.5,40.92 491.5,40.89 492.5,43.71 493.5,40.60 494.5,32.38 495.5,32.33 496.5,39.94 497.5,44.87 498.5,46.25 499.5,46.81 500.5,46.95 501.5,47.00 502.5,47.04 503.5,47.12 504.5,47.11 505.5,47.04 506.5,47.14 507.5,47.31 508.5,47.35 509.5,47.32 510.5,47.29 511.5,47.20 512.0,47.5 512.0,50.0 "></polygon>
</svg>
