<svg id='wave' preserveAspectRatio='none' viewBox="0 0 512 100" xmlns="http://www.w3.org/2000/svg" height="100" width="512">
    <polygon points="0.0,50.0 0.5,50.00 1.5,49.88 2.5,49.73 3.5,49.73 4.5,49.71 5.5,49.67 6.5,49.70 7.5,49.73 8.5,49.62 9.5,49.46 10.5,49.38 11.5,49.37 12.5,49.41 13.5,49.35 14.5,46.56 15.5,40.44 16.5,35.06 17.5,29.15 18.5,26.57 19.5,34.93 20.5,44.79 21.5,43.15 22.5,29.97 23.5,25.12 24.5,37.85 25.5,47.91 26.5,48.29 27.5,46.99 28.5,47.17 29.5,48.10 30.5,48.42 31.5,48.75 32.5,49.00 33.5,49.18 34.5,49.31 35.5,49.30 36.5,49.32 37.5,49.40 38.5,49.45 39.5,49.51 40.5,49.58 41.5,49.57 42.5,49.53 43.5,49.53 44.5,49.54 45.5,49.56 46.5,49.60 47.5,49.55 48.5,49.48 49.5,49.58 50.5,49.63 51.5,49.65 52.5,49.68 53.5,49.70 54.5,49.67 55.5,49.59 56.5,49.51 57.5,45.16 58.5,34.62 59.5,26.53 60.5,25.88 61.5,29.66 62.5,31.29 63.5,29.43 64.5,32.31 65.5,38.25 66.5,40.91 67.5,41.72 68.5,39.26 69.5,36.47 70.5,38.75 71.5,41.98 72.5,44.17 73.5,45.20 74.5,37.44 75.5,28.79 76.5,35.62 77.5,45.62 78.5,47.90 79.5,46.01 80.5,39.70 81.5,33.27 82.5,27.29 83.5,20.93 84.5,22.70 85.5,28.83 86.5,29.03 87.5,29.70 88.5,36.03 89.5,44.06 90.5,48.59 91.5,46.18 92.5,37.32 93.5,29.42 94.5,28.96 95.5,30.73 96.5,34.38 97.5,42.98 98.5,48.46 99.5,42.97 100.5,32.07 101.5,31.88 102.5,41.66 103.5,47.97 104.5,49.10 105.5,48.16 106.5,46.83 107.5,46.39 108.5,43.15 109.5,39.08 110.5,42.51 111.5,47.86 112.5,49.28 113.5,46.43 114.5,38.97 115.5,33.33 116.5,33.72 117.5,38.54 118.5,44.13 119.5,46.37 120.5,45.19 121.5,44.17 122.5,45.71 123.5,48.14 124.5,46.43 125.5,40.81 126.5,40.33 127.5,45.81 128.5,48.32 129.5,46.58 130.5,45.27 131.5,46.04 132.5,47.52 133.5,48.58 134.5,49.16 135.5,49.37 136.5,49.47 137.5,49.52 138.5,49.55 139.5,49.49 140.5,49.43 141.5,49.58 142.5,49.67 143.5,49.64 144.5,49.64 145.5,49.63 146.5,49.53 147.5,49.47 148.5,49.57 149.5,49.58 150.5,49.51 151.5,49.48 152.5,49.44 153.5,49.43 154.5,49.42 155.5,49.36 156.5,49.33 157.5,49.36 158.5,49.35 159.5,49.24 160.5,49.27 161.5,49.45 162.5,49.59 163.5,49.70 164.5,49.71 165.5,47.80 166.5,36.01 167.5,16.90 168.5,5.64 169.5,8.65 170.5,24.88 171.5,41.58 172.5,47.92 173.5,44.64 174.5,36.07 175.5,32.81 176.5,37.45 177.5,43.45 178.5,47.38 179.5,49.01 180.5,48.79 181.5,44.45 182.5,38.13 183.5,33.25 184.5,28.97 185.5,27.44 186.5,28.77 187.5,34.76 188.5,43.99 189.5,46.26 190.5,43.45 191.5,44.69 192.5,46.93 193.5,43.29 194.5,37.52 195.5,36.29 196.5,34.42 197.5,28.36 198.5,24.15 199.5,27.43 200.5,37.68 201.5,45.74 202.5,46.11 203.5,42.62 204.5,40.37 205.5,38.59 206.5,34.47 207.5,31.37 208.5,32.61 209.5,37.80 210.5,44.15 211.5,43.19 212.5,34.52 213.5,31.16 214.5,37.54 215.5,45.04 216.5,46.23 217.5,43.16 218.5,41.67 219.5,43.06 220.5,46.11 221.5,48.47 222.5,47.87 223.5,40.96 224.5,29.27 225.5,23.25 226.5,27.26 227.5,33.61 228.5,33.82 229.5,30.16 230.5,32.48 231.5,38.74 232.5,38.20 233.5,33.55 234.5,31.65 235.5,32.58 236.5,36.64 237.5,43.09 238.5,47.88 239.5,46.40 240.5,38.66 241.5,32.67 242.5,33.04 243.5,35.46 244.5,37.99 245.5,40.96 246.5,43.60 247.5,46.08 248.5,48.33 249.5,49.35 250.5,46.54 251.5,40.22 252.5,35.59 253.5,36.22 254.5,41.46 255.5,46.24 256.5,46.29 257.5,43.07 258.5,40.06 259.5,38.58 260.5,37.68 261.5,35.77 262.5,34.39 263.5,35.35 264.5,39.56 265.5,45.75 266.5,48.01 267.5,46.41 268.5,45.17 269.5,44.61 270.5,43.98 271.5,40.23 272.5,33.61 273.5,30.02 274.5,30.24 275.5,34.97 276.5,43.13 277.5,46.61 278.5,43.80 279.5,42.80 280.5,45.41 281.5,43.97 282.5,39.09 283.5,36.20 284.5,35.21 285.5,35.53 286.5,38.90 287.5,44.67 288.5,48.35 289.5,49.28 290.5,49.50 291.5,49.54 292.5,49.50 293.5,49.43 294.5,49.44 295.5,49.39 296.5,49.29 297.5,49.29 298.5,49.22 299.5,49.13 300.5,49.13 301.5,49.23 302.5,49.29 303.5,49.28 304.5,49.32 305.5,49.34 306.5,49.35 307.5,49.38 308.5,49.39 309.5,49.43 310.5,49.44 311.5,49.44 312.5,49.45 313.5,49.45 314.5,49.46 315.5,49.47 316.5,49.57 317.5,49.73 318.5,49.77 319.5,49.75 320.5,49.76 321.5,49.74 322.5,49.66 323.5,48.31 324.5,44.89 325.5,42.09 326.5,41.47 327.5,42.29 328.5,42.52 329.5,39.54 330.5,35.06 331.5,32.35 332.5,34.74 333.5,41.29 334.5,42.85 335.5,36.73 336.5,31.22 337.5,30.62 338.5,32.11 339.5,34.40 340.5,35.04 341.5,33.13 342.5,32.99 343.5,34.98 344.5,37.97 345.5,42.41 346.5,44.42 347.5,41.97 348.5,39.42 349.5,35.92 350.5,28.76 351.5,22.25 352.5,23.74 353.5,31.25 354.5,35.07 355.5,34.57 356.5,34.67 357.5,38.84 358.5,44.82 359.5,41.52 360.5,31.88 361.5,33.78 362.5,44.07 363.5,48.84 364.5,49.29 365.5,48.49 366.5,42.52 367.5,32.93 368.5,28.10 369.5,29.14 370.5,35.26 371.5,44.22 372.5,44.04 373.5,37.03 374.5,37.75 375.5,43.72 376.5,47.56 377.5,48.27 378.5,46.90 379.5,45.87 380.5,43.33 381.5,39.25 382.5,40.51 383.5,46.11 384.5,47.86 385.5,43.83 386.5,39.20 387.5,38.72 388.5,40.14 389.5,42.08 390.5,44.94 391.5,45.41 392.5,42.91 393.5,42.95 394.5,46.95 395.5,49.43 396.5,48.89 397.5,48.02 398.5,48.39 399.5,49.00 400.5,49.20 401.5,49.48 402.5,49.64 403.5,49.69 404.5,49.69 405.5,49.63 406.5,49.64 407.5,49.65 408.5,49.52 409.5,49.48 410.5,49.53 411.5,49.46 412.5,49.39 413.5,49.44 414.5,49.49 415.5,49.40 416.5,47.54 417.5,43.77 418.5,41.17 419.5,40.68 420.5,41.23 421.5,40.74 422.5,35.79 423.5,24.80 424.5,22.10 425.5,35.62 426.5,45.06 427.5,41.13 428.5,33.51 429.5,29.91 430.5,32.76 431.5,37.59 432.5,38.99 433.5,40.69 434.5,42.62 435.5,38.01 436.5,35.23 437.5,41.00 438.5,46.64 439.5,48.57 440.5,47.62 441.5,42.26 442.5,38.35 443.5,40.27 444.5,41.27 445.5,39.16 446.5,38.38 447.5,39.34 448.5,40.20 449.5,42.94 450.5,46.99 451.5,47.36 452.5,44.29 453.5,42.27 454.5,43.41 455.5,46.22 456.5,48.45 457.5,49.42 458.5,49.64 459.5,49.63 460.5,49.58 461.5,49.55 462.5,49.58 463.5,49.65 464.5,49.65 465.5,49.60 466.5,49.57 467.5,49.56 468.5,49.59 469.5,49.61 470.5,49.63 471.5,49.58 472.5,49.54 473.5,48.10 474.5,43.94 475.5,39.55 476.5,37.65 477.5,38.49 478.5,41.38 479.5,45.08 480.5,46.33 481.5,39.80 482.5,28.78 483.5,27.22 484.5,37.00 485.5,45.77 486.5,48.55 487.5,47.94 488.5,46.35 489.5,45.07 490.5,43.07 491.5,43.04 492.5,46.01 493.5,42.73 494.5,34.08 495.5,34.03 496.5,42.04 497.5,47.23 498.5,48.69 499.5,49.27 500.5,49.42 501.5,49.47 502.5,49.51 503.5,49.60 504.5,49.59 505.5,49.51 506.5,49.62 507.5,49.80 508.5,49.84 509.5,49.81 510.5,49.78 511.5,49.69 512.0,50.0 "></polygon>
</svg>
