<svg id='pitch' preserveAspectRatio='none' viewBox="0 0 512 100" xmlns="http://www.w3.org/2000/svg" height="100" width="512">
    <polygon points="0.0,100.0 0.5,100.00 1.5,100.00 2.5,100.00 3.5,100.00 4.5,100.00 5.5,100.00 6.5,100.00 7.5,100.00 8.5,100.00 9.5,100.00 10.5,99.69 11.5,98.42 12.5,95.89 13.5,92.31 14.5,87.90 15.5,82.87 16.5,77.91 17.5,74.02 18.5,71.55 19.5,70.15 20.5,68.89 21.5,67.18 22.5,65.29 23.5,62.57 24.5,57.62 25.5,50.03 26.5,40.63 27.5,31.95 28.5,27.33 29.5,29.12 30.5,37.89 31.5,52.22 32.5,68.86 33.5,83.57 34.5,93.60 35.5,98.66 36.5,100.00 37.5,100.00 38.5,100.00 39.5,100.00 40.5,100.00 41.5,100.00 42.5,100.00 43.5,100.00 44.5,100.00 45.5,100.00 46.5,100.00 47.5,100.00 48.5,100.00 49.5,100.00 50.5,100.00 51.5,100.00 52.5,100.00 53.5,100.00 54.5,98.83 55.5,94.59 56.5,86.44 57.5,74.81 58.5,61.53 59.5,49.40 60.5,41.06 61.5,37.94 62.5,39.78 63.5,45.38 64.5,52.37 65.5,58.48 66.5,62.85 67.5,65.39 68.5,67.14 69.5,69.43 70.5,72.23 71.5,74.46 72.5,75.26 73.5,74.24 74.5,70.93 75.5,65.03 76.5,57.65 77.5,51.05 78.5,47.32 79.5,47.02 80.5,49.09 81.5,52.71 82.5,57.22 83.5,61.34 84.5,63.93 85.5,64.29 86.5,63.06 87.5,61.34 88.5,59.46 89.5,57.15 90.5,54.62 91.5,52.65 92.5,51.87 93.5,52.04 94.5,52.21 95.5,52.49 96.5,52.76 97.5,52.60 98.5,52.76 99.5,54.12 100.5,57.42 101.5,62.78 102.5,69.66 103.5,76.77 104.5,82.63 105.5,86.12 106.5,85.49 107.5,80.88 108.5,74.54 109.5,68.76 110.5,65.11 111.5,63.42 112.5,62.37 113.5,60.17 114.5,56.20 115.5,51.75 116.5,49.15 117.5,50.39 118.5,55.98 119.5,64.43 120.5,72.86 121.5,79.19 122.5,82.68 123.5,83.27 124.5,82.04 125.5,80.31 126.5,79.15 127.5,79.44 128.5,81.60 129.5,85.41 130.5,90.14 131.5,94.75 132.5,98.02 133.5,99.58 134.5,100.00 135.5,100.00 136.5,100.00 137.5,100.00 138.5,100.00 139.5,100.00 140.5,100.00 141.5,100.00 142.5,100.00 143.5,100.00 144.5,100.00 145.5,100.00 146.5,100.00 147.5,100.00 148.5,100.00 149.5,100.00 150.5,100.00 151.5,100.00 152.5,100.00 153.5,100.00 154.5,100.00 155.5,100.00 156.5,100.00 157.5,100.00 158.5,99.84 159.5,99.42 160.5,98.86 161.5,98.35 162.5,97.17 163.5,93.92 164.5,87.84 165.5,79.03 166.5,68.45 167.5,57.53 168.5,47.71 169.5,40.08 170.5,34.88 171.5,31.44 172.5,28.56 173.5,26.58 174.5,27.38 175.5,31.98 176.5,40.53 177.5,51.84 178.5,63.35 179.5,72.26 180.5,76.53 181.5,75.42 182.5,69.63 183.5,61.40 184.5,53.12 185.5,46.61 186.5,43.09 187.5,42.22 188.5,42.94 189.5,44.23 190.5,45.14 191.5,45.41 192.5,45.57 193.5,46.39 194.5,48.37 195.5,51.39 196.5,54.95 197.5,58.06 198.5,60.17 199.5,61.68 200.5,63.22 201.5,65.42 202.5,68.14 203.5,70.57 204.5,72.03 205.5,72.16 206.5,71.06 207.5,68.92 208.5,66.30 209.5,63.33 210.5,59.41 211.5,55.01 212.5,51.51 213.5,50.56 214.5,53.52 215.5,60.49 216.5,70.30 217.5,80.86 218.5,89.85 219.5,95.16 220.5,95.86 221.5,92.47 222.5,85.74 223.5,77.00 224.5,68.23 225.5,61.14 226.5,56.94 227.5,55.91 228.5,57.35 229.5,59.49 230.5,60.42 231.5,58.88 232.5,54.67 233.5,48.68 234.5,42.11 235.5,36.12 236.5,31.89 237.5,30.52 238.5,32.44 239.5,37.07 240.5,43.25 241.5,50.10 242.5,57.04 243.5,63.45 244.5,68.89 245.5,73.45 246.5,77.70 247.5,81.56 248.5,84.06 249.5,84.40 250.5,82.44 251.5,79.04 252.5,75.55 253.5,72.83 254.5,71.23 255.5,70.75 256.5,70.78 257.5,70.28 258.5,68.39 259.5,64.72 260.5,59.46 261.5,53.79 262.5,49.52 263.5,48.26 264.5,50.93 265.5,57.24 266.5,65.75 267.5,74.32 268.5,80.49 269.5,82.29 270.5,79.13 271.5,72.04 272.5,62.82 273.5,53.92 274.5,47.93 275.5,46.09 276.5,48.07 277.5,52.74 278.5,58.33 279.5,62.90 280.5,65.65 281.5,66.87 282.5,67.31 283.5,67.96 284.5,69.00 285.5,69.71 286.5,70.36 287.5,72.13 288.5,75.43 289.5,79.99 290.5,85.28 291.5,90.53 292.5,94.95 293.5,98.00 294.5,99.57 295.5,100.00 296.5,100.00 297.5,100.00 298.5,100.00 299.5,100.00 300.5,100.00 301.5,100.00 302.5,100.00 303.5,100.00 304.5,100.00 305.5,100.00 306.5,100.00 307.5,100.00 308.5,100.00 309.5,100.00 310.5,100.00 311.5,100.00 312.5,100.00 313.5,100.00 314.5,100.00 315.5,100.00 316.5,100.00 317.5,100.00 318.5,100.00 319.5,100.00 320.5,99.70 321.5,98.60 322.5,96.48 323.5,93.44 324.5,89.90 325.5,86.46 326.5,83.66 327.5,81.79 328.5,80.84 329.5,79.52 330.5,75.68 331.5,68.40 332.5,58.14 333.5,47.17 334.5,38.93 335.5,36.03 336.5,39.33 337.5,47.46 338.5,57.20 339.5,64.81 340.5,68.24 341.5,68.34 342.5,67.53 343.5,68.22 344.5,71.19 345.5,75.26 346.5,78.61 347.5,79.29 348.5,75.95 349.5,68.52 350.5,59.12 351.5,51.39 352.5,47.80 353.5,48.67 354.5,52.92 355.5,59.02 356.5,65.02 357.5,68.94 358.5,69.79 359.5,68.45 360.5,67.10 361.5,67.36 362.5,69.76 363.5,73.22 364.5,75.75 365.5,75.62 366.5,71.40 367.5,63.03 368.5,52.11 369.5,41.04 370.5,31.74 371.5,26.17 372.5,25.84 373.5,30.33 374.5,38.85 375.5,50.41 376.5,63.35 377.5,75.25 378.5,83.51 379.5,86.71 380.5,85.07 381.5,81.06 382.5,77.30 383.5,75.01 384.5,74.98 385.5,77.03 386.5,80.04 387.5,82.60 388.5,83.97 389.5,84.32 390.5,83.93 391.5,83.11 392.5,82.23 393.5,81.80 394.5,81.49 395.5,79.71 396.5,76.34 397.5,72.88 398.5,70.91 399.5,71.51 400.5,74.95 401.5,80.78 402.5,88.00 403.5,94.73 404.5,98.84 405.5,100.00 406.5,100.00 407.5,100.00 408.5,100.00 409.5,100.00 410.5,100.00 411.5,100.00 412.5,100.00 413.5,99.72 414.5,98.71 415.5,96.75 416.5,93.95 417.5,90.68 418.5,87.45 419.5,84.73 420.5,82.77 421.5,80.95 422.5,77.96 423.5,73.52 424.5,68.67 425.5,64.21 426.5,60.13 427.5,56.97 428.5,55.63 429.5,56.44 430.5,59.13 431.5,62.84 432.5,66.74 433.5,70.25 434.5,72.27 435.5,71.53 436.5,68.36 437.5,64.44 438.5,61.12 439.5,58.93 440.5,58.09 441.5,58.38 442.5,59.24 443.5,60.28 444.5,61.65 445.5,63.46 446.5,65.70 447.5,68.43 448.5,71.55 449.5,74.58 450.5,76.77 451.5,77.87 452.5,78.17 453.5,78.21 454.5,78.81 455.5,80.54 456.5,83.52 457.5,87.50 458.5,91.66 459.5,95.16 460.5,97.59 461.5,99.07 462.5,99.81 463.5,100.00 464.5,100.00 465.5,100.00 466.5,100.00 467.5,100.00 468.5,100.00 469.5,100.00 470.5,99.72 471.5,98.44 472.5,95.50 473.5,90.03 474.5,81.26 475.5,70.21 476.5,59.65 477.5,52.47 478.5,49.91 479.5,50.99 480.5,53.37 481.5,54.61 482.5,53.93 483.5,52.12 484.5,51.07 485.5,53.40 486.5,60.12 487.5,69.83 488.5,79.93 489.5,88.23 490.5,93.19 491.5,94.07 492.5,91.27 493.5,85.66 494.5,78.65 495.5,72.53 496.5,69.48 497.5,70.47 498.5,75.19 499.5,82.14 500.5,89.11 501.5,94.60 502.5,98.03 503.5,99.58 504.5,100.00 505.5,100.00 506.5,100.00 507.5,100.00 508.5,100.00 509.5,100.00 510.5,100.00 511.5,100.00 512.0,100.0 "></polygon>
</svg>
