<svg id='pitch' preserveAspectRatio='none' viewBox="0 0 512 100" xmlns="http://www.w3.org/2000/svg" height="100" width="512">
    <polygon points="0.0,100.0 0.0,95.0 0.5,95.00 1.5,95.00 2.5,95.00 3.5,95.00 4.5,95.00 5.5,95.00 6.5,95.00 7.5,95.00 8.5,95.00 9.5,95.00 10.5,94.70 11.5,93.50 12.5,91.10 13.5,87.69 14.5,83.51 15.5,78.72 16.5,74.02 17.5,70.32 18.5,67.98 19.5,66.64 20.5,65.44 21.5,63.82 22.5,62.02 23.5,59.44 24.5,54.74 25.5,47.53 26.5,38.60 27.5,30.35 28.5,25.96 29.5,27.66 30.5,35.99 31.5,49.61 32.5,65.42 33.5,79.39 34.5,88.92 35.5,93.72 36.5,95.00 37.5,95.00 38.5,95.00 39.5,95.00 40.5,95.00 41.5,95.00 42.5,95.00 43.5,95.00 44.5,95.00 45.5,95.00 46.5,95.00 47.5,95.00 48.5,95.00 49.5,95.00 50.5,95.00 51.5,95.00 52.5,95.00 53.5,95.00 54.5,93.89 55.5,89.86 56.5,82.11 57.5,71.07 58.5,58.45 59.5,46.93 60.5,39.01 61.5,36.04 62.5,37.79 63.5,43.11 64.5,49.75 65.5,55.55 66.5,59.71 67.5,62.12 68.5,63.79 69.5,65.96 70.5,68.62 71.5,70.74 72.5,71.50 73.5,70.52 74.5,67.39 75.5,61.78 76.5,54.77 77.5,48.50 78.5,44.95 79.5,44.67 80.5,46.64 81.5,50.07 82.5,54.36 83.5,58.28 84.5,60.73 85.5,61.08 86.5,59.91 87.5,58.28 88.5,56.48 89.5,54.30 90.5,51.89 91.5,50.02 92.5,49.27 93.5,49.44 94.5,49.60 95.5,49.87 96.5,50.12 97.5,49.97 98.5,50.13 99.5,51.42 100.5,54.55 101.5,59.64 102.5,66.18 103.5,72.93 104.5,78.50 105.5,81.81 106.5,81.21 107.5,76.84 108.5,70.81 109.5,65.33 110.5,61.86 111.5,60.25 112.5,59.25 113.5,57.17 114.5,53.39 115.5,49.17 116.5,46.69 117.5,47.87 118.5,53.18 119.5,61.21 120.5,69.21 121.5,75.24 122.5,78.55 123.5,79.10 124.5,77.94 125.5,76.30 126.5,75.19 127.5,75.47 128.5,77.52 129.5,81.14 130.5,85.63 131.5,90.01 132.5,93.12 133.5,94.60 134.5,95.00 135.5,95.00 136.5,95.00 137.5,95.00 138.5,95.00 139.5,95.00 140.5,95.00 141.5,95.00 142.5,95.00 143.5,95.00 144.5,95.00 145.5,95.00 146.5,95.00 147.5,95.00 148.5,95.00 149.5,95.00 150.5,95.00 151.5,95.00 152.5,95.00 153.5,95.00 154.5,95.00 155.5,95.00 156.5,95.00 157.5,95.00 158.5,94.85 159.5,94.45 160.5,93.92 161.5,93.43 162.5,92.31 163.5,89.22 164.5,83.44 165.5,75.08 166.5,65.03 167.5,54.65 168.5,45.33 169.5,38.08 170.5,33.13 171.5,29.87 172.5,27.13 173.5,25.25 174.5,26.01 175.5,30.39 176.5,38.51 177.5,49.25 178.5,60.18 179.5,68.65 180.5,72.71 181.5,71.65 182.5,66.15 183.5,58.33 184.5,50.46 185.5,44.28 186.5,40.93 187.5,40.11 188.5,40.79 189.5,42.02 190.5,42.88 191.5,43.14 192.5,43.29 193.5,44.07 194.5,45.96 195.5,48.82 196.5,52.21 197.5,55.16 198.5,57.16 199.5,58.60 200.5,60.06 201.5,62.15 202.5,64.73 203.5,67.04 204.5,68.42 205.5,68.55 206.5,67.51 207.5,65.48 208.5,62.98 209.5,60.17 210.5,56.44 211.5,52.26 212.5,48.94 213.5,48.03 214.5,50.84 215.5,57.47 216.5,66.79 217.5,76.82 218.5,85.35 219.5,90.40 220.5,91.07 221.5,87.84 222.5,81.45 223.5,73.15 224.5,64.81 225.5,58.08 226.5,54.09 227.5,53.12 228.5,54.49 229.5,56.52 230.5,57.40 231.5,55.94 232.5,51.93 233.5,46.24 234.5,40.00 235.5,34.31 236.5,30.30 237.5,28.99 238.5,30.81 239.5,35.21 240.5,41.09 241.5,47.60 242.5,54.19 243.5,60.28 244.5,65.45 245.5,69.78 246.5,73.82 247.5,77.48 248.5,79.86 249.5,80.18 250.5,78.32 251.5,75.09 252.5,71.77 253.5,69.19 254.5,67.67 255.5,67.22 256.5,67.24 257.5,66.76 258.5,64.97 259.5,61.49 260.5,56.49 261.5,51.10 262.5,47.05 263.5,45.85 264.5,48.39 265.5,54.38 266.5,62.46 267.5,70.60 268.5,76.47 269.5,78.17 270.5,75.17 271.5,68.44 272.5,59.68 273.5,51.23 274.5,45.54 275.5,43.78 276.5,45.67 277.5,50.11 278.5,55.41 279.5,59.75 280.5,62.37 281.5,63.53 282.5,63.94 283.5,64.56 284.5,65.55 285.5,66.23 286.5,66.85 287.5,68.52 288.5,71.66 289.5,75.99 290.5,81.02 291.5,86.00 292.5,90.20 293.5,93.10 294.5,94.59 295.5,95.00 296.5,95.00 297.5,95.00 298.5,95.00 299.5,95.00 300.5,95.00 301.5,95.00 302.5,95.00 303.5,95.00 304.5,95.00 305.5,95.00 306.5,95.00 307.5,95.00 308.5,95.00 309.5,95.00 310.5,95.00 311.5,95.00 312.5,95.00 313.5,95.00 314.5,95.00 315.5,95.00 316.5,95.00 317.5,95.00 318.5,95.00 319.5,95.00 320.5,94.71 321.5,93.67 322.5,91.65 323.5,88.77 324.5,85.41 325.5,82.14 326.5,79.48 327.5,77.70 328.5,76.80 329.5,75.54 330.5,71.90 331.5,64.98 332.5,55.23 333.5,44.81 334.5,36.99 335.5,34.22 336.5,37.36 337.5,45.09 338.5,54.34 339.5,61.57 340.5,64.83 341.5,64.93 342.5,64.16 343.5,64.81 344.5,67.63 345.5,71.50 346.5,74.68 347.5,75.33 348.5,72.15 349.5,65.09 350.5,56.17 351.5,48.82 352.5,45.41 353.5,46.23 354.5,50.28 355.5,56.07 356.5,61.77 357.5,65.50 358.5,66.30 359.5,65.03 360.5,63.74 361.5,64.00 362.5,66.27 363.5,69.56 364.5,71.96 365.5,71.84 366.5,67.83 367.5,59.88 368.5,49.50 369.5,38.99 370.5,30.16 371.5,24.86 372.5,24.55 373.5,28.82 374.5,36.90 375.5,47.89 376.5,60.18 377.5,71.49 378.5,79.34 379.5,82.38 380.5,80.82 381.5,77.01 382.5,73.43 383.5,71.26 384.5,71.23 385.5,73.18 386.5,76.03 387.5,78.47 388.5,79.77 389.5,80.11 390.5,79.74 391.5,78.96 392.5,78.11 393.5,77.71 394.5,77.41 395.5,75.73 396.5,72.52 397.5,69.24 398.5,67.37 399.5,67.93 400.5,71.20 401.5,76.74 402.5,83.60 403.5,89.99 404.5,93.89 405.5,95.00 406.5,95.00 407.5,95.00 408.5,95.00 409.5,95.00 410.5,95.00 411.5,95.00 412.5,95.00 413.5,94.74 414.5,93.77 415.5,91.91 416.5,89.25 417.5,86.15 418.5,83.08 419.5,80.49 420.5,78.63 421.5,76.90 422.5,74.07 423.5,69.84 424.5,65.24 425.5,61.00 426.5,57.12 427.5,54.12 428.5,52.85 429.5,53.62 430.5,56.17 431.5,59.70 432.5,63.41 433.5,66.74 434.5,68.65 435.5,67.96 436.5,64.94 437.5,61.22 438.5,58.07 439.5,55.99 440.5,55.19 441.5,55.46 442.5,56.27 443.5,57.26 444.5,58.57 445.5,60.29 446.5,62.41 447.5,65.01 448.5,67.97 449.5,70.85 450.5,72.93 451.5,73.98 452.5,74.26 453.5,74.30 454.5,74.87 455.5,76.51 456.5,79.34 457.5,83.12 458.5,87.08 459.5,90.41 460.5,92.71 461.5,94.12 462.5,94.81 463.5,95.00 464.5,95.00 465.5,95.00 466.5,95.00 467.5,95.00 468.5,95.00 469.5,95.00 470.5,94.73 471.5,93.52 472.5,90.72 473.5,85.53 474.5,77.20 475.5,66.70 476.5,56.67 477.5,49.85 478.5,47.42 479.5,48.44 480.5,50.70 481.5,51.88 482.5,51.23 483.5,49.51 484.5,48.51 485.5,50.73 486.5,57.11 487.5,66.34 488.5,75.93 489.5,83.82 490.5,88.53 491.5,89.36 492.5,86.71 493.5,81.37 494.5,74.71 495.5,68.90 496.5,66.01 497.5,66.95 498.5,71.43 499.5,78.03 500.5,84.65 501.5,89.87 502.5,93.13 503.5,94.60 504.5,95.00 505.5,95.00 506.5,95.00 507.5,95.00 508.5,95.00 509.5,95.00 510.5,95.00 511.5,95.00 512.0,95.0 512.0,100.0 "></polygon>
</svg>
