<svg id='units' preserveAspectRatio='none' viewBox="0 0 512 100" xmlns="http://www.w3.org/2000/svg" height="100" width="512">
    <rect x="13.31" y="0" rx="4" ry="4" width="13.08" height="100"></rect>
    <rect x="56.33" y="0" rx="4" ry="4" width="18.92" height="100"></rect>
    <rect x="76.25" y="0" rx="4" ry="4" width="12.81" height="100"></rect>
    <rect x="90.06" y="0" rx="4" ry="4" width="6.70" height="100"></rect>
    <rect x="99.36" y="0" rx="4" ry="4" width="30.07" height="100"></rect>
    <rect x="165.22" y="0" rx="4" ry="4" width="5.91" height="100"></rect>
    <rect x="172.13" y="0" rx="4" ry="4" width="27.95" height="100"></rect>
    <rect x="201.08" y="0" rx="4" ry="4" width="18.12" height="100"></rect>
    <rect x="220.20" y="0" rx="4" ry="4" width="16.00" height="100"></rect>
    <rect x="238.79" y="0" rx="4" ry="4" width="6.97" height="100"></rect>
    <rect x="246.76" y="0" rx="4" ry="4" width="39.90" height="100"></rect>
    <rect x="323.51" y="0" rx="4" ry="4" width="8.03" height="100"></rect>
    <rect x="332.54" y="0" rx="4" ry="4" width="12.28" height="100"></rect>
    <rect x="345.82" y="0" rx="4" ry="4" width="5.91" height="100"></rect>
    <rect x="352.72" y="0" rx="4" ry="4" width="9.09" height="100"></rect>
    <rect x="362.82" y="0" rx="4" ry="4" width="7.23" height="100"></rect>
    <rect x="371.05" y="0" rx="4" ry="4" width="26.09" height="100"></rect>
    <rect x="415.93" y="0" rx="4" ry="4" width="8.03" height="100"></rect>
    <rect x="424.96" y="0" rx="4" ry="4" width="3.78" height="100"></rect>
    <rect x="429.74" y="0" rx="4" ry="4" width="8.30" height="100"></rect>
    <rect x="439.04" y="0" rx="4" ry="4" width="2.45" height="100"></rect>
    <rect x="442.49" y="0" rx="4" ry="4" width="12.54" height="100"></rect>
    <rect x="472.50" y="0" rx="4" ry="4" width="23.70" height="100"></rect>
</svg>
