<svg id='wave' preserveAspectRatio='none' viewBox="0 0 512 100" xmlns="http://www.w3.org/2000/svg" height="100" width="512">
    <polygon points="0.0,50.0 0.5,50.00 1.5,49.88 2.5,49.73 3.5,49.73 4.5,49.71 5.5,49.67 6.5,49.70 7.5,49.73 8.5,49.62 9.5,49.46 10.5,49.38 11.5,49.37 12.5,49.41 13.5,49.35 14.5,46.56 15.5,40.44 16.5,35.06 17.5,29.15 18.5,26.57 19.5,34.93 20.5,44.79 21.5,43.15 22.5,29.97 23.5,25.12 24.5,37.85 25.5,47.91 26.5,48.29 27.5,46.99 28.5,47.17 29.5,48.10 30.5,48.42 31.5,48.75 32.5,49.00 33.5,49.18 34.5,49.31 35.5,49.30 36.5,49.32 37.5,49.40 38.5,49.45 39.5,49.51 40.5,49.58 41.5,49.57 42.5,49.53 43.5,49.53 44.5,49.54 45.5,49.56 46.5,49.60 47.5,49.55 48.5,49.48 49.5,49.58 50.5,49.63 51.5,49.65 52.5,49.68 53.5,49.70 54.5,49.67 55.5,49.59 56.5,49.51 57.5,45.16 58.5,34.62 59.5,26.53 60.5,25.88 61.5,29.66 62.5,31.29 63.5,29.43 64.5,32.31 65.5,38.25 66.5,40.91 67.5,41.72 68.5,39.26 69.5,36.47 70.5,38.75 71.5,41.98 72.5,44.17 73.5,45.20 74.5,37.44 75.5,28.79 76.5,35.62 77.5,45.62 78.5,47.90 79.5,46.01 80.5,39.70 81.5,33.27 82.5,27.29 83.5,20.93 84.5,22.70 85.5,28.83 86.5,29.03 87.5,29.70 88.5,36.03 89.5,44.06 90.5,48.59 91.5,46.18 92.5,37.32 93.5,29.42 94.5,28.96 95.5,30.73 96.5,34.38 97.5,42.98 98.5,48.46 99.5,42.97 100.5,32.07 101.5,31.88 102.5,41.66 103.5,47.97 104.5,49.10 105.5,48.16 106.5,46.83 107.5,46.39 108.5,43.15 109.5,39.08 110.5,42.51 111.5,47.86 112.5,49.28 113.5,46.43 114.5,38.97 115.5,33.33 116.5,33.72 117.5,38.54 118.5,44.13 119.5,46.37 120.5,45.19 121.5,44.17 122.5,45.71 123.5,48.14 124.5,46.43 125.5,40.81 126.5,40.33 127.5,45.81 128.5,48.32 129.5,46.58 130.5,45.27 131.5,46.04 132.5,47.52 133.5,48.58 134.5,49.16 135.5,49.37 136.5,49.47 137.5,49.52 138.5,49.55 139.5,49.49 140.5,49.43 141.5,49.58 142.5,49.67 143.5,49.64 144.5,49.64 145.5,49.63 146.5,49.53 147.5,49.47 148.5,49.57 149.5,49.58 150.5,49.51 151.5,49.48 152.5,49.44 153.5,49.43 154.5,49.42 155.5,49.36 156.5,49.33 157.5,49.36 158.5,49.35 159.5,49.24 160.5,49.27 161.5,49.45 162.5,49.59 163.5,49.70 164.5,49.71 165.5,47.80 166.5,36.01 167.5,16.90 168.5,5.64 169.5,8.65 170.5,24.88 171.5,41.58 172.5,47.92 173.5,44.64 174.5,36.07 175.5,32.81 176.5,37.45 177.5,43.45 178.5,47.38 179.5,49.01 180.5,48.79 181.5,44.45 182.5,38.13 183.5,33.25 184.5,28.97 185.5,27.44 186.5,28.77 187.5,34.76 188.5,43.99 189.5,46.26 190.5,43.45 191.5,44.69 192.5,46.93 193.5,43.29 194.5,37.52 195.5,36.29 196.5,34.42 197.5,28.36 198.5,24.15 199.5,27.43 200.5,37.68 201.5,45.74 202.5,46.11 203.5,42.62 204.5,40.37 205.5,38.59 206.5,34.47 207.5,31.37 208.5,32.61 209.5,37.80 210.5,44.15 211.5,43.19 212.5,34.52 213.5,31.16 214.5,37.54 215.5,45.04 216.5,46.23 217.5,43.16 218.5,41.67 219.5,43.06 220.5,46.11 221.5,48.47 222.5,47.87 223.5,40.96 224.5,29.27 225.5,23.25 226.5,27.26 227.5,33.61 228.5,33.82 229.5,30.16 230.5,32.48 231.5,38.74 232.5,38.20 233.5,33.55 234.5,31.65 235.5,32.58 236.5,36.64 237.5,43.09 238.5,47.88 239.5,46.40 240.5,38.66 241.5,32.67 242.5,33.04 243.5,35.46 244.5,37.99 245.5,40.96 246.5,43.60 247.5,46.08 248.5,48.33 249.5,49.35 250.5,46.54 251.5,40.22 252.5,35.59 253.5,36.22 254.5,41.46 255.5,46.24 256.5,46.29 257.5,43.07 258.5,40.06 259.5,38.58 260.5,37.68 261.5,35.77 262.5,34.39 263.5,35.35 264.5,39.56 265.5,45.75 266.5,48.01 267.5,46.41 268.5,45.17 269.5,44.61 270.5,43.98 271.5,40.23 272.5,33.61 273.5,30.02 274.5,30.24 275.5,34.97 276.5,43.13 277.5,46.61 278.5,43.80 279.5,42.80 280.5,45.41 281.5,43.97 282.5,39.09 283.5,36.20 284.5,35.21 285.5,35.53 286.5,38.90 287.5,44.67 288.5,48.35 289.5,49.28 290.5,49.50 291.5,49.54 292.5,49.50 293.5,49.43 294.5,49.44 295.5,49.39 296.5,49.29 297.5,49.29 298.5,49.22 299.5,49.13 300.5,49.13 301.5,49.23 302.5,49.29 303.5,49.28 304.5,49.32 305.5,49.34 306.5,49.35 307.5,49.38 308.5,49.39 309.5,49.43 310.5,49.44 311.5,49.44 312.5,49.45 313.5,49.45 314.5,49.46 315.5,49.47 316.5,49.57 317.5,49.73 318.5,49.77 319.5,49.75 320.5,49.76 321.5,49.74 322.5,49.66 323.5,48.31 324.5,44.89 325.5,42.09 326.5,41.47 327.5,42.29 328.5,42.52 329.5,39.54 330.5,35.06 331.5,32.35 332.5,34.74 333.5,41.29 334.5,42.85 335.5,36.73 336.5,31.22 337.5,30.62 338.5,32.11 339.5,34.40 340.5,35.04 341.5,33.13 342.5,32.99 343.5,34.98 344.5,37.97 345.5,42.41 346.5,44.42 347.5,41.97 348.5,39.42 349.5,35.92 350.5,28.76 351.5,22.25 352.5,23.74 353.5,31.25 354.5,35.07 355.5,34.57 356.5,34.67 357.5,38.84 358.5,44.82 359.5,41.52 360.5,31.88 361.5,33.78 362.5,44.07 363.5,48.84 364.5,49.29 365.5,48.49 366.5,42.52 367.5,32.93 368.5,28.10 369.5,29.14 370.5,35.26 371.5,44.22 372.5,44.04 373.5,37.03 374.5,37.75 375.5,43.72 376.5,47.56 377.5,48.27 378.5,46.90 379.5,45.87 380.5,43.33 381.5,39.25 382.5,40.51 383.5,46.11 384.5,47.86 385.5,43.83 386.5,39.20 387.5,38.72 388.5,40.14 389.5,42.08 390.5,44.94 391.5,45.41 392.5,42.91 393.5,42.95 394.5,46.95 395.5,49.43 396.5,48.89 397.5,48.02 398.5,48.39 399.5,49.00 400.5,49.20 401.5,49.48 402.5,49.64 403.5,49.69 404.5,49.69 405.5,49.63 406.5,49.64 407.5,49.65 408.5,49.52 409.5,49.48 410.5,49.53 411.5,49.46 412.5,49.39 413.5,49.44 414.5,49.49 415.5,49.40 416.5,47.54 417.5,43.77 418.5,41.17 419.5,40.68 420.5,41.23 421.5,40.74 422.5,35.79 423.5,24.80 424.5,22.10 425.5,35.62 426.5,45.06 427.5,41.13 428.5,33.51 429.5,29.91 430.5,32.76 431.5,37.59 432.5,38.99 433.5,40.69 434.5,42.62 435.5,38.01 436.5,35.23 437.5,41.00 438.5,46.64 439.5,48.57 440.5,47.62 441.5,42.26 442.5,38.35 443.5,40.27 444.5,41.27 445.5,39.16 446.5,38.38 447.5,39.34 448.5,40.20 449.5,42.94 450.5,46.99 451.5,47.36 452.5,44.29 453.5,42.27 454.5,43.41 455.5,46.22 456.5,48.45 457.5,49.42 458.5,49.64 459.5,49.63 460.5,49.58 461.5,49.55 462.5,49.58 463.5,49.65 464.5,49.65 465.5,49.60 466.5,49.57 467.5,49.56 468.5,49.59 469.5,49.61 470.5,49.63 471.5,49.58 472.5,49.54 473.5,48.10 474.5,43.94 475.5,39.55 476.5,37.65 477.5,38.49 478.5,41.38 479.5,45.08 480.5,46.33 481.5,39.80 482.5,28.78 483.5,27.22 484.5,37.00 485.5,45.77 486.5,48.55 487.5,47.94 488.5,46.35 489.5,45.07 490.5,43.07 491.5,43.04 492.5,46.01 493.5,42.73 494.5,34.08 495.5,34.03 496.5,42.04 497.5,47.23 498.5,48.69 499.5,49.27 500.5,49.42 501.5,49.47 502.5,49.51 503.5,49.60 504.5,49.59 505.5,49.51 506.5,49.62 507.5,49.80 508.5,49.84 509.5,49.81 510.5,49.78 511.5,49.69 512.0,50.0 511.5,50.28 510.5,50.29 509.5,50.33 508.5,50.41 507.5,50.37 506.5,50.21 505.5,50.21 504.5,50.28 503.5,50.33 502.5,50.50 501.5,50.56 500.5,50.50 499.5,50.72 498.5,51.42 497.5,52.89 496.5,56.71 495.5,61.95 494.5,62.04 493.5,56.10 492.5,53.66 491.5,56.43 490.5,56.83 489.5,54.53 488.5,52.82 487.5,51.61 486.5,51.38 485.5,54.57 484.5,61.68 483.5,66.93 482.5,64.50 481.5,57.47 480.5,53.57 479.5,55.58 478.5,59.62 477.5,61.79 476.5,62.27 475.5,60.55 474.5,55.97 473.5,51.82 472.5,50.42 471.5,50.43 470.5,50.52 469.5,50.45 468.5,50.32 467.5,50.30 466.5,50.34 465.5,50.37 464.5,50.37 463.5,50.38 462.5,50.41 461.5,50.38 460.5,50.37 459.5,50.37 458.5,50.36 457.5,50.44 456.5,51.26 455.5,53.70 454.5,57.08 453.5,58.19 452.5,55.56 451.5,52.42 450.5,53.37 449.5,58.60 448.5,62.55 447.5,62.78 446.5,62.14 445.5,61.48 444.5,60.03 443.5,59.59 442.5,58.90 441.5,54.96 440.5,51.51 439.5,51.26 438.5,53.67 437.5,59.29 436.5,63.20 435.5,59.93 434.5,55.84 433.5,58.19 432.5,62.10 431.5,62.83 430.5,63.31 429.5,64.10 428.5,62.21 427.5,57.68 426.5,54.62 425.5,58.79 424.5,67.03 423.5,68.56 422.5,62.85 421.5,57.75 420.5,57.16 419.5,59.21 418.5,59.45 417.5,56.10 416.5,52.08 415.5,50.48 414.5,50.54 413.5,50.64 412.5,50.62 411.5,50.60 410.5,50.63 409.5,50.59 408.5,50.44 407.5,50.37 406.5,50.33 405.5,50.21 404.5,50.22 403.5,50.31 402.5,50.37 401.5,50.49 400.5,50.79 399.5,51.10 398.5,51.66 397.5,51.94 396.5,51.10 395.5,50.62 394.5,52.69 393.5,56.26 392.5,56.94 391.5,55.00 390.5,55.23 389.5,58.62 388.5,62.39 387.5,63.72 386.5,60.72 385.5,55.27 384.5,51.94 383.5,52.68 382.5,55.81 381.5,57.18 380.5,55.68 379.5,54.23 378.5,53.00 377.5,51.56 376.5,51.83 375.5,54.70 374.5,59.42 373.5,59.99 372.5,54.85 371.5,55.49 370.5,62.65 369.5,67.30 368.5,67.66 367.5,62.67 366.5,55.24 365.5,51.26 364.5,50.71 363.5,51.14 362.5,55.27 361.5,62.72 360.5,62.68 359.5,55.44 358.5,53.80 357.5,58.59 356.5,63.00 355.5,65.97 354.5,68.05 353.5,69.29 352.5,68.57 351.5,66.01 350.5,64.27 349.5,62.84 348.5,61.65 347.5,58.93 346.5,55.52 345.5,57.95 344.5,61.58 343.5,61.31 342.5,62.58 341.5,64.14 340.5,62.90 339.5,62.85 338.5,63.95 337.5,64.63 336.5,65.39 335.5,62.63 334.5,57.39 333.5,57.56 332.5,62.82 331.5,66.05 330.5,63.95 329.5,59.22 328.5,56.38 327.5,56.19 326.5,56.56 325.5,56.21 324.5,54.47 323.5,51.74 322.5,50.29 321.5,50.23 320.5,50.27 319.5,50.26 318.5,50.22 317.5,50.24 316.5,50.35 315.5,50.47 314.5,50.54 313.5,50.60 312.5,50.68 311.5,50.60 310.5,50.45 309.5,50.55 308.5,50.73 307.5,50.73 306.5,50.60 305.5,50.52 304.5,50.62 303.5,50.71 302.5,50.75 301.5,50.83 300.5,50.86 299.5,50.84 298.5,50.80 297.5,50.74 296.5,50.70 295.5,50.65 294.5,50.57 293.5,50.59 292.5,50.59 291.5,50.50 290.5,50.54 289.5,50.78 288.5,51.67 287.5,55.09 286.5,60.07 285.5,63.00 284.5,64.49 283.5,64.78 282.5,61.11 281.5,55.46 280.5,54.14 279.5,55.76 278.5,54.22 277.5,52.96 276.5,56.52 275.5,62.78 274.5,66.52 273.5,65.28 272.5,61.17 271.5,56.89 270.5,55.74 269.5,56.83 268.5,56.30 267.5,53.69 266.5,51.76 265.5,53.65 264.5,59.07 263.5,63.00 262.5,62.69 261.5,61.48 260.5,61.72 259.5,62.27 258.5,61.73 257.5,58.60 256.5,54.30 255.5,53.57 254.5,56.40 253.5,59.10 252.5,60.43 251.5,58.38 250.5,53.26 249.5,50.72 248.5,52.00 247.5,54.36 246.5,55.96 245.5,57.13 244.5,59.36 243.5,61.17 242.5,61.49 241.5,61.31 240.5,58.46 239.5,53.31 238.5,52.14 237.5,56.57 236.5,61.37 235.5,62.60 234.5,61.44 233.5,59.72 232.5,57.72 231.5,57.55 230.5,60.32 229.5,61.87 228.5,60.74 227.5,60.42 226.5,61.62 225.5,62.51 224.5,60.65 223.5,56.14 222.5,52.75 221.5,51.99 220.5,53.89 219.5,57.67 218.5,59.47 217.5,57.14 216.5,53.92 215.5,54.71 214.5,60.26 213.5,64.34 212.5,60.98 211.5,54.90 210.5,55.22 209.5,60.09 208.5,63.01 207.5,63.66 206.5,62.42 205.5,60.20 204.5,59.35 203.5,58.05 202.5,54.83 201.5,54.47 200.5,59.68 199.5,65.15 198.5,66.84 197.5,65.83 196.5,63.61 195.5,62.89 194.5,60.89 193.5,55.03 192.5,52.26 191.5,53.85 190.5,53.93 189.5,52.42 188.5,54.23 187.5,60.47 186.5,66.10 185.5,67.79 184.5,65.42 183.5,62.25 182.5,59.75 181.5,54.73 180.5,50.80 179.5,50.92 178.5,53.68 177.5,58.64 176.5,62.87 175.5,64.61 174.5,61.68 173.5,54.85 172.5,52.10 171.5,58.71 170.5,70.41 169.5,77.07 168.5,76.19 167.5,69.56 166.5,59.11 165.5,51.98 164.5,50.30 163.5,50.29 162.5,50.30 161.5,50.46 160.5,50.72 159.5,50.83 158.5,50.73 157.5,50.61 156.5,50.50 155.5,50.47 154.5,50.57 153.5,50.58 152.5,50.51 151.5,50.49 150.5,50.52 149.5,50.55 148.5,50.46 147.5,50.37 146.5,50.36 145.5,50.38 144.5,50.46 143.5,50.55 142.5,50.63 141.5,50.56 140.5,50.47 139.5,50.56 138.5,50.63 137.5,50.57 136.5,50.46 135.5,50.48 134.5,50.80 133.5,51.38 132.5,52.35 131.5,53.44 130.5,54.32 129.5,53.86 128.5,52.23 127.5,53.89 126.5,58.19 125.5,57.78 124.5,53.21 123.5,51.68 122.5,54.03 121.5,55.43 120.5,54.27 119.5,53.86 118.5,55.67 117.5,59.35 116.5,64.15 115.5,64.84 114.5,58.88 113.5,52.59 112.5,50.74 111.5,51.30 110.5,54.43 109.5,57.37 108.5,55.71 107.5,53.95 106.5,53.86 105.5,52.88 104.5,51.50 103.5,51.60 102.5,55.81 101.5,63.25 100.5,63.38 99.5,55.06 98.5,51.07 97.5,56.46 96.5,64.41 95.5,66.03 94.5,64.97 93.5,63.95 92.5,58.69 91.5,52.97 90.5,51.74 89.5,54.86 88.5,60.36 87.5,65.05 86.5,65.66 85.5,63.92 84.5,64.11 83.5,65.26 82.5,65.61 81.5,64.54 80.5,59.59 79.5,53.93 78.5,52.40 77.5,53.15 76.5,59.49 75.5,65.80 74.5,60.52 73.5,54.70 72.5,56.86 71.5,60.25 70.5,62.46 69.5,63.06 68.5,59.77 67.5,57.09 66.5,57.54 65.5,59.32 64.5,62.63 63.5,64.10 62.5,63.08 61.5,64.87 60.5,68.24 59.5,67.54 58.5,61.03 57.5,53.28 56.5,50.25 55.5,50.21 54.5,50.20 53.5,50.25 52.5,50.29 51.5,50.31 50.5,50.36 49.5,50.45 48.5,50.45 47.5,50.44 46.5,50.50 45.5,50.50 44.5,50.44 43.5,50.46 42.5,50.50 41.5,50.47 40.5,50.43 39.5,50.45 38.5,50.51 37.5,50.57 36.5,50.66 35.5,50.72 34.5,50.78 33.5,50.91 32.5,50.96 31.5,51.08 30.5,51.31 29.5,51.76 28.5,52.82 27.5,53.06 26.5,52.01 25.5,52.73 24.5,59.73 23.5,68.32 22.5,65.66 21.5,56.23 20.5,55.11 19.5,64.35 18.5,73.48 17.5,72.35 16.5,66.00 15.5,60.28 14.5,53.97 13.5,50.73 12.5,50.62 11.5,50.58 10.5,50.55 9.5,50.55 8.5,50.51 7.5,50.39 6.5,50.34 5.5,50.32 4.5,50.31 3.5,50.23 2.5,50.08 1.5,50.09 0.5,50.07 "></polygon>
</svg>
