<svg id='wave' preserveAspectRatio='none' viewBox="0 0 512 100" xmlns="http://www.w3.org/2000/svg" height="100" width="512">
    <polygon points="0.0,50.0 0.0,47.5 0.5,47.50 1.5,47.38 2.5,47.24 3.5,47.24 4.5,47.23 5.5,47.19 6.5,47.22 7.5,47.24 8.5,47.14 9.5,46.98 10.5,46.91 11.5,46.90 12.5,46.94 13.5,46.88 14.5,44.23 15.5,38.41 16.5,33.31 17.5,27.69 18.5,25.24 19.5,33.18 20.5,42.56 21.5,40.99 22.5,28.47 23.5,23.86 24.5,35.96 25.5,45.52 26.5,45.88 27.5,44.64 28.5,44.81 29.5,45.69 30.5,46.00 31.5,46.31 32.5,46.55 33.5,46.72 34.5,46.85 35.5,46.84 36.5,46.85 37.5,46.93 38.5,46.98 39.5,47.04 40.5,47.10 41.5,47.09 42.5,47.05 43.5,47.06 44.5,47.07 45.5,47.08 46.5,47.12 47.5,47.07 48.5,47.01 49.5,47.10 50.5,47.15 51.5,47.17 52.5,47.20 53.5,47.21 54.5,47.18 55.5,47.11 56.5,47.03 57.5,42.91 58.5,32.88 59.5,25.20 60.5,24.59 61.5,28.17 62.5,29.73 63.5,27.96 64.5,30.69 65.5,36.34 66.5,38.87 67.5,39.63 68.5,37.30 69.5,34.64 70.5,36.81 71.5,39.88 72.5,41.97 73.5,42.94 74.5,35.57 75.5,27.35 76.5,33.84 77.5,43.34 78.5,45.51 79.5,43.71 80.5,37.71 81.5,31.60 82.5,25.93 83.5,19.89 84.5,21.57 85.5,27.39 86.5,27.58 87.5,28.22 88.5,34.23 89.5,41.86 90.5,46.16 91.5,43.87 92.5,35.46 93.5,27.95 94.5,27.51 95.5,29.19 96.5,32.66 97.5,40.83 98.5,46.03 99.5,40.83 100.5,30.46 101.5,30.28 102.5,39.58 103.5,45.57 104.5,46.65 105.5,45.75 106.5,44.49 107.5,44.07 108.5,40.99 109.5,37.13 110.5,40.38 111.5,45.47 112.5,46.81 113.5,44.11 114.5,37.02 115.5,31.66 116.5,32.03 117.5,36.61 118.5,41.92 119.5,44.05 120.5,42.93 121.5,41.96 122.5,43.42 123.5,45.74 124.5,44.11 125.5,38.77 126.5,38.31 127.5,43.52 128.5,45.91 129.5,44.25 130.5,43.01 131.5,43.74 132.5,45.14 133.5,46.15 134.5,46.70 135.5,46.90 136.5,46.99 137.5,47.04 138.5,47.07 139.5,47.01 140.5,46.96 141.5,47.10 142.5,47.18 143.5,47.16 144.5,47.15 145.5,47.14 146.5,47.05 147.5,47.00 148.5,47.09 149.5,47.10 150.5,47.03 151.5,47.01 152.5,46.97 153.5,46.96 154.5,46.95 155.5,46.89 156.5,46.86 157.5,46.89 158.5,46.88 159.5,46.78 160.5,46.81 161.5,46.98 162.5,47.11 163.5,47.22 164.5,47.22 165.5,45.41 166.5,34.20 167.5,16.06 168.5,5.35 169.5,8.22 170.5,23.64 171.5,39.50 172.5,45.53 173.5,42.41 174.5,34.27 175.5,31.17 176.5,35.57 177.5,41.28 178.5,45.01 179.5,46.56 180.5,46.35 181.5,42.22 182.5,36.22 183.5,31.59 184.5,27.52 185.5,26.07 186.5,27.33 187.5,33.02 188.5,41.80 189.5,43.95 190.5,41.28 191.5,42.46 192.5,44.58 193.5,41.12 194.5,35.65 195.5,34.48 196.5,32.70 197.5,26.94 198.5,22.94 199.5,26.06 200.5,35.80 201.5,43.46 202.5,43.81 203.5,40.49 204.5,38.35 205.5,36.66 206.5,32.75 207.5,29.80 208.5,30.98 209.5,35.91 210.5,41.94 211.5,41.03 212.5,32.80 213.5,29.61 214.5,35.66 215.5,42.79 216.5,43.91 217.5,41.00 218.5,39.58 219.5,40.91 220.5,43.80 221.5,46.05 222.5,45.47 223.5,38.91 224.5,27.81 225.5,22.09 226.5,25.90 227.5,31.93 228.5,32.13 229.5,28.66 230.5,30.86 231.5,36.81 232.5,36.29 233.5,31.88 234.5,30.07 235.5,30.95 236.5,34.80 237.5,40.94 238.5,45.48 239.5,44.08 240.5,36.73 241.5,31.04 242.5,31.39 243.5,33.69 244.5,36.09 245.5,38.91 246.5,41.42 247.5,43.78 248.5,45.91 249.5,46.88 250.5,44.21 251.5,38.21 252.5,33.81 253.5,34.41 254.5,39.38 255.5,43.93 256.5,43.97 257.5,40.92 258.5,38.06 259.5,36.66 260.5,35.80 261.5,33.98 262.5,32.67 263.5,33.58 264.5,37.58 265.5,43.46 266.5,45.61 267.5,44.09 268.5,42.91 269.5,42.38 270.5,41.78 271.5,38.21 272.5,31.93 273.5,28.52 274.5,28.73 275.5,33.22 276.5,40.97 277.5,44.28 278.5,41.61 279.5,40.66 280.5,43.14 281.5,41.77 282.5,37.14 283.5,34.39 284.5,33.45 285.5,33.75 286.5,36.95 287.5,42.44 288.5,45.93 289.5,46.81 290.5,47.03 291.5,47.06 292.5,47.02 293.5,46.96 294.5,46.97 295.5,46.92 296.5,46.83 297.5,46.82 298.5,46.76 299.5,46.68 300.5,46.68 301.5,46.77 302.5,46.82 303.5,46.81 304.5,46.86 305.5,46.87 306.5,46.89 307.5,46.91 308.5,46.92 309.5,46.96 310.5,46.97 311.5,46.97 312.5,46.98 313.5,46.98 314.5,46.99 315.5,47.00 316.5,47.09 317.5,47.24 318.5,47.28 319.5,47.26 320.5,47.27 321.5,47.26 322.5,47.18 323.5,45.89 324.5,42.65 325.5,39.99 326.5,39.39 327.5,40.17 328.5,40.39 329.5,37.56 330.5,33.30 331.5,30.74 332.5,33.01 333.5,39.23 334.5,40.71 335.5,34.89 336.5,29.66 337.5,29.09 338.5,30.50 339.5,32.68 340.5,33.29 341.5,31.47 342.5,31.34 343.5,33.23 344.5,36.07 345.5,40.29 346.5,42.20 347.5,39.87 348.5,37.45 349.5,34.12 350.5,27.32 351.5,21.14 352.5,22.55 353.5,29.69 354.5,33.32 355.5,32.84 356.5,32.93 357.5,36.90 358.5,42.58 359.5,39.45 360.5,30.29 361.5,32.09 362.5,41.86 363.5,46.40 364.5,46.83 365.5,46.06 366.5,40.40 367.5,31.28 368.5,26.69 369.5,27.69 370.5,33.49 371.5,42.01 372.5,41.84 373.5,35.18 374.5,35.87 375.5,41.54 376.5,45.18 377.5,45.86 378.5,44.55 379.5,43.58 380.5,41.17 381.5,37.29 382.5,38.48 383.5,43.80 384.5,45.47 385.5,41.64 386.5,37.24 387.5,36.79 388.5,38.13 389.5,39.98 390.5,42.69 391.5,43.14 392.5,40.76 393.5,40.80 394.5,44.60 395.5,46.96 396.5,46.45 397.5,45.62 398.5,45.97 399.5,46.55 400.5,46.74 401.5,47.01 402.5,47.16 403.5,47.20 404.5,47.21 405.5,47.15 406.5,47.16 407.5,47.17 408.5,47.05 409.5,47.01 410.5,47.06 411.5,46.99 412.5,46.92 413.5,46.97 414.5,47.01 415.5,46.93 416.5,45.16 417.5,41.59 418.5,39.11 419.5,38.65 420.5,39.17 421.5,38.70 422.5,34.00 423.5,23.56 424.5,20.99 425.5,33.84 426.5,42.80 427.5,39.07 428.5,31.84 429.5,28.41 430.5,31.13 431.5,35.71 432.5,37.04 433.5,38.65 434.5,40.49 435.5,36.11 436.5,33.47 437.5,38.95 438.5,44.30 439.5,46.14 440.5,45.24 441.5,40.14 442.5,36.43 443.5,38.25 444.5,39.20 445.5,37.20 446.5,36.46 447.5,37.38 448.5,38.19 449.5,40.79 450.5,44.64 451.5,44.99 452.5,42.08 453.5,40.16 454.5,41.24 455.5,43.91 456.5,46.03 457.5,46.94 458.5,47.15 459.5,47.15 460.5,47.10 461.5,47.07 462.5,47.10 463.5,47.17 464.5,47.17 465.5,47.12 466.5,47.09 467.5,47.09 468.5,47.11 469.5,47.13 470.5,47.15 471.5,47.10 472.5,47.06 473.5,45.69 474.5,41.75 475.5,37.57 476.5,35.76 477.5,36.57 478.5,39.31 479.5,42.83 480.5,44.01 481.5,37.81 482.5,27.34 483.5,25.86 484.5,35.15 485.5,43.48 486.5,46.12 487.5,45.54 488.5,44.03 489.5,42.81 490.5,40.92 491.5,40.89 492.5,43.71 493.5,40.60 494.5,32.38 495.5,32.33 496.5,39.94 497.5,44.87 498.5,46.25 499.5,46.81 500.5,46.95 501.5,47.00 502.5,47.04 503.5,47.12 504.5,47.11 505.5,47.04 506.5,47.14 507.5,47.31 508.5,47.35 509.5,47.32 510.5,47.29 511.5,47.20 512.0,47.5 512.0,50.0 512.0,52.5 511.5,52.80 510.5,52.81 509.5,52.84 508.5,52.93 507.5,52.89 506.5,52.72 505.5,52.72 504.5,52.79 503.5,52.85 502.5,53.02 501.5,53.09 500.5,53.02 499.5,53.26 498.5,53.99 497.5,55.54 496.5,59.54 495.5,65.05 494.5,65.14 493.5,58.90 492.5,56.34 491.5,59.25 490.5,59.68 489.5,57.26 488.5,55.47 487.5,54.19 486.5,53.94 485.5,57.30 484.5,64.76 483.5,70.28 482.5,67.72 481.5,60.35 480.5,56.25 479.5,58.36 478.5,62.60 477.5,64.88 476.5,65.38 475.5,63.58 474.5,58.77 473.5,54.41 472.5,52.94 471.5,52.95 470.5,53.05 469.5,52.98 468.5,52.84 467.5,52.81 466.5,52.85 465.5,52.89 464.5,52.89 463.5,52.90 462.5,52.93 461.5,52.90 460.5,52.89 459.5,52.89 458.5,52.87 457.5,52.96 456.5,53.83 455.5,56.39 454.5,59.93 453.5,61.10 452.5,58.34 451.5,55.04 450.5,56.03 449.5,61.53 448.5,65.68 447.5,65.92 446.5,65.25 445.5,64.55 444.5,63.03 443.5,62.57 442.5,61.85 441.5,57.70 440.5,54.09 439.5,53.83 438.5,56.35 437.5,62.25 436.5,66.36 435.5,62.92 434.5,58.63 433.5,61.10 432.5,65.20 431.5,65.97 430.5,66.48 429.5,67.31 428.5,65.32 427.5,60.56 426.5,57.35 425.5,61.73 424.5,70.38 423.5,71.99 422.5,65.99 421.5,60.64 420.5,60.01 419.5,62.17 418.5,62.42 417.5,58.91 416.5,54.68 415.5,53.00 414.5,53.07 413.5,53.18 412.5,53.15 411.5,53.13 410.5,53.17 409.5,53.12 408.5,52.96 407.5,52.89 406.5,52.84 405.5,52.72 404.5,52.73 403.5,52.83 402.5,52.89 401.5,53.02 400.5,53.33 399.5,53.66 398.5,54.25 397.5,54.54 396.5,53.66 395.5,53.15 394.5,55.32 393.5,59.07 392.5,59.79 391.5,57.75 390.5,57.99 389.5,61.55 388.5,65.51 387.5,66.90 386.5,63.75 385.5,58.03 384.5,54.54 383.5,55.31 382.5,58.60 381.5,60.04 380.5,58.46 379.5,56.94 378.5,55.65 377.5,54.14 376.5,54.42 375.5,57.43 374.5,62.39 373.5,62.99 372.5,57.59 371.5,58.26 370.5,65.79 369.5,70.67 368.5,71.04 367.5,65.81 366.5,58.01 365.5,53.82 364.5,53.24 363.5,53.70 362.5,58.03 361.5,65.85 360.5,65.81 359.5,58.21 358.5,56.49 357.5,61.52 356.5,66.15 355.5,69.26 354.5,71.45 353.5,72.76 352.5,72.00 351.5,69.31 350.5,67.48 349.5,65.98 348.5,64.73 347.5,61.88 346.5,58.30 345.5,60.85 344.5,64.66 343.5,64.38 342.5,65.70 341.5,67.34 340.5,66.05 339.5,65.99 338.5,67.15 337.5,67.86 336.5,68.66 335.5,65.76 334.5,60.26 333.5,60.44 332.5,65.96 331.5,69.35 330.5,67.15 329.5,62.19 328.5,59.20 327.5,59.00 326.5,59.39 325.5,59.02 324.5,57.19 323.5,54.33 322.5,52.80 321.5,52.74 320.5,52.78 319.5,52.77 318.5,52.73 317.5,52.75 316.5,52.86 315.5,52.99 314.5,53.06 313.5,53.13 312.5,53.22 311.5,53.13 310.5,52.97 309.5,53.08 308.5,53.27 307.5,53.26 306.5,53.13 305.5,53.05 304.5,53.15 303.5,53.25 302.5,53.29 301.5,53.37 300.5,53.40 299.5,53.38 298.5,53.34 297.5,53.27 296.5,53.24 295.5,53.18 294.5,53.10 293.5,53.12 292.5,53.12 291.5,53.02 290.5,53.07 289.5,53.32 288.5,54.25 287.5,57.84 286.5,63.07 285.5,66.15 284.5,67.72 283.5,68.02 282.5,64.17 281.5,58.24 280.5,56.84 279.5,58.55 278.5,56.93 277.5,55.60 276.5,59.35 275.5,65.92 274.5,69.85 273.5,68.55 272.5,64.23 271.5,59.74 270.5,58.53 269.5,59.68 268.5,59.11 267.5,56.38 266.5,54.35 265.5,56.34 264.5,62.02 263.5,66.14 262.5,65.83 261.5,64.55 260.5,64.81 259.5,65.38 258.5,64.82 257.5,61.53 256.5,57.02 255.5,56.25 254.5,59.22 253.5,62.06 252.5,63.45 251.5,61.30 250.5,55.92 249.5,53.25 248.5,54.60 247.5,57.08 246.5,58.75 245.5,59.98 244.5,62.33 243.5,64.22 242.5,64.56 241.5,64.37 240.5,61.38 239.5,55.97 238.5,54.75 237.5,59.40 236.5,64.44 235.5,65.73 234.5,64.51 233.5,62.71 232.5,60.60 231.5,60.43 230.5,63.34 229.5,64.96 228.5,63.78 227.5,63.44 226.5,64.70 225.5,65.64 224.5,63.69 223.5,58.95 222.5,55.39 221.5,54.59 220.5,56.59 219.5,60.56 218.5,62.44 217.5,60.00 216.5,56.62 215.5,57.45 214.5,63.27 213.5,67.55 212.5,64.03 211.5,57.64 210.5,57.98 209.5,63.10 208.5,66.16 207.5,66.84 206.5,65.54 205.5,63.21 204.5,62.31 203.5,60.96 202.5,57.57 201.5,57.19 200.5,62.67 199.5,68.41 198.5,70.18 197.5,69.12 196.5,66.79 195.5,66.04 194.5,63.94 193.5,57.79 192.5,54.87 191.5,56.54 190.5,56.63 189.5,55.04 188.5,56.94 187.5,63.49 186.5,69.41 185.5,71.17 184.5,68.69 183.5,65.36 182.5,62.74 181.5,57.47 180.5,53.34 179.5,53.47 178.5,56.36 177.5,61.57 176.5,66.02 175.5,67.84 174.5,64.76 173.5,57.59 172.5,54.70 171.5,61.65 170.5,73.93 169.5,80.93 168.5,80.00 167.5,73.04 166.5,62.06 165.5,54.58 164.5,52.82 163.5,52.80 162.5,52.82 161.5,52.99 160.5,53.25 159.5,53.37 158.5,53.27 157.5,53.14 156.5,53.03 155.5,53.00 154.5,53.09 153.5,53.11 152.5,53.03 151.5,53.01 150.5,53.05 149.5,53.07 148.5,52.98 147.5,52.89 146.5,52.88 145.5,52.90 144.5,52.98 143.5,53.07 142.5,53.16 141.5,53.09 140.5,52.99 139.5,53.08 138.5,53.16 137.5,53.10 136.5,52.98 135.5,53.00 134.5,53.34 133.5,53.95 132.5,54.97 131.5,56.12 130.5,57.03 129.5,56.56 128.5,54.84 127.5,56.58 126.5,61.10 125.5,60.67 124.5,55.87 123.5,54.27 122.5,56.73 121.5,58.20 120.5,56.98 119.5,56.55 118.5,58.45 117.5,62.32 116.5,67.36 115.5,68.08 114.5,61.83 113.5,55.22 112.5,53.28 111.5,53.86 110.5,57.15 109.5,60.24 108.5,58.49 107.5,56.65 106.5,56.55 105.5,55.52 104.5,54.08 103.5,54.18 102.5,58.60 101.5,66.41 100.5,66.55 99.5,57.81 98.5,53.62 97.5,59.28 96.5,67.63 95.5,69.33 94.5,68.22 93.5,67.15 92.5,61.63 91.5,55.62 90.5,54.33 89.5,57.60 88.5,63.38 87.5,68.30 86.5,68.94 85.5,67.12 84.5,67.32 83.5,68.52 82.5,68.89 81.5,67.77 80.5,62.57 79.5,56.62 78.5,55.02 77.5,55.81 76.5,62.47 75.5,69.09 74.5,63.54 73.5,57.43 72.5,59.71 71.5,63.26 70.5,65.58 69.5,66.21 68.5,62.76 67.5,59.94 66.5,60.42 65.5,62.28 64.5,65.76 63.5,67.30 62.5,66.24 61.5,68.11 60.5,71.65 59.5,70.91 58.5,64.08 57.5,55.94 56.5,52.77 55.5,52.72 54.5,52.71 53.5,52.77 52.5,52.81 51.5,52.83 50.5,52.88 49.5,52.97 48.5,52.97 47.5,52.96 46.5,53.03 45.5,53.02 44.5,52.96 43.5,52.99 42.5,53.02 41.5,53.00 40.5,52.95 39.5,52.97 38.5,53.04 37.5,53.10 36.5,53.20 35.5,53.26 34.5,53.32 33.5,53.45 32.5,53.51 31.5,53.64 30.5,53.88 29.5,54.35 28.5,55.46 27.5,55.72 26.5,54.61 25.5,55.37 24.5,62.71 23.5,71.73 22.5,68.95 21.5,59.05 20.5,57.87 19.5,67.56 18.5,77.16 17.5,75.97 16.5,69.30 15.5,63.30 14.5,56.67 13.5,53.27 12.5,53.15 11.5,53.11 10.5,53.08 9.5,53.08 8.5,53.04 7.5,52.91 6.5,52.86 5.5,52.84 4.5,52.83 3.5,52.74 2.5,52.59 1.5,52.59 0.5,52.57 0.0,52.5 "></polygon>
</svg>
